<?xml version="1.0" encoding="UTF-8"?>
<svg width="580px" height="670px" viewBox="0 0 580 670" version="1.1" xmlns="http://www.w3.org/2000/svg" xmlns:xlink="http://www.w3.org/1999/xlink">
    <!-- Generator: Sketch 52.5 (67469) - http://www.bohemiancoding.com/sketch -->
    <title>Group</title>
    <desc>Created with Sketch.</desc>
    <g id="Desktop" stroke="none" stroke-width="1" fill="none" fill-rule="evenodd">
        <g id="Circuit" transform="translate(-1149.000000, -1230.000000)" stroke="#FFFFFF" stroke-width="9.15200016">
            <g id="Group" transform="translate(1439.000000, 1565.500000) rotate(-270.000000) translate(-1439.000000, -1565.500000) translate(1108.500000, 1280.500000)">
                <path d="M540.09227,569.919997 L32.7863926,569.919997 C12.4079909,569.919997 0,548.35556 0,526.011571 C0,503.672363 11.3692046,485.881344 28.4254051,485.881344 L126.023445,485.881344 C134.740633,485.881344 144.592348,483.408775 165.061703,463.537354 C178.518054,450.471477 186.28741,448.955414 192.544062,448.955414 C198.795928,448.955414 204.099961,449.524535 217.369618,460.313928 C230.634488,471.112885 268.724914,503.481062 276.116094,509.54053 C283.507273,515.604781 288.624612,518.063002 297.528495,518.063002 C306.437164,518.063002 325.767205,512.577438 325.767205,493.452092 C325.767205,488.908687 324.120466,479.410578 316.293666,463.537354 C291.276629,412.794689 269.864228,368.685396 262.851224,355.428217 C255.83822,342.171038 252.046889,330.439487 249.773048,309.037656 C247.499207,287.650173 244.469015,282.724165 225.895325,267.195283 C207.321635,251.671184 147.986354,202.898922 147.986354,202.898922 C138.847907,193.506029 114.046287,181.463614 114.046287,55.0230313 C114.046287,18.5131816 138.326121,0 167.302035,0 C196.996004,0 238.145344,17.9153651 293.990877,17.9153651 C325.4369,17.9153651 342.483527,10.2728789 355.418091,10.2728789 C368.347869,10.2728789 373.053523,28.1930265 373.053523,64.5976605 C373.053523,101.01186 366.58624,197.915524 334.551412,197.915524 C295.460496,197.915524 269.888163,86.0329691 224.037956,86.0329691 C208.460949,86.0329691 202.582472,98.9553707 202.582472,112.169507 C202.582472,125.37886 215.679795,211.54574 311.037503,306.560305 C343.436146,338.842396 390.67938,361.554641 390.67938,375.763544 C390.67938,388.375081 374.255068,401.110963 374.255068,413.277725 C374.255068,425.128839 380.334601,435.239112 400.176855,435.239112 C426.055558,435.239112 554.984732,326.914761 591.820955,326.914761 C626.699281,326.914761 660.399997,417.357225 660.399997,460.816094 C660.399997,533.242759 590.648131,569.919997 540.09227,569.919997 Z" id="Stroke-1"></path>
            </g>
        </g>
    </g>
</svg>